<svg width="250" height="250" viewBox="0 0 250 250" fill="none" xmlns="http://www.w3.org/2000/svg">
<g clip-path="url(#clip0_9_3004)">
<g clip-path="url(#clip1_9_3004)">
<path d="M209.278 230.656L19.632 209.638C10.5139 208.627 3.94182 200.417 4.95211 191.299L22.383 34.0235C23.3938 24.9054 31.6046 18.3328 40.7222 19.3436L230.368 40.3622C239.486 41.373 246.059 49.5838 245.048 58.7015L227.617 215.976C226.607 225.095 218.396 231.667 209.278 230.656Z" fill="url(#paint0_linear_9_3004)"/>
<path d="M245.047 58.7019L238.175 120.728L222.899 39.5353L230.37 40.3627C239.486 41.3716 246.057 49.5814 245.047 58.7019Z" fill="url(#paint1_linear_9_3004)"/>
<path d="M236.458 201.441L48.9398 236.718C39.9242 238.414 31.2403 232.48 29.5443 223.464L0.289348 67.9539C-1.40673 58.9382 4.52709 50.2544 13.5428 48.5583L201.06 13.2818C210.076 11.5858 218.76 17.5196 220.456 26.5353L249.711 182.046C251.407 191.062 245.473 199.746 236.458 201.441Z" fill="url(#paint2_linear_9_3004)"/>
<path d="M224.459 47.8167V203.699L236.457 201.441C245.473 199.745 251.407 191.061 249.71 182.046L224.459 47.8167Z" fill="url(#paint3_linear_9_3004)"/>
<path d="M28.6519 218.719L29.5445 223.464C31.2406 232.48 39.9244 238.414 48.9401 236.718L144.614 218.719H28.6519Z" fill="url(#paint4_linear_9_3004)"/>
<path d="M207.848 219.689H17.0419C7.86792 219.689 0.431152 212.252 0.431152 203.078V44.8402C0.431152 35.6661 7.86792 28.2294 17.0419 28.2294H207.848C217.022 28.2294 224.459 35.6661 224.459 44.8402V203.078C224.459 212.252 217.022 219.689 207.848 219.689Z" fill="url(#paint5_linear_9_3004)"/>
<path d="M192.294 204.081H32.5968C24.9188 204.081 18.6943 197.857 18.6943 190.179V57.7402C18.6943 50.0622 24.9188 43.8377 32.5968 43.8377H192.294C199.972 43.8377 206.196 50.0622 206.196 57.7402V190.179C206.196 197.857 199.972 204.081 192.294 204.081Z" fill="url(#paint6_linear_9_3004)"/>
<path d="M123.563 204.081H32.5992C24.9198 204.081 18.6924 197.859 18.6924 190.18V168.469L41.7718 140.416C49.3885 131.15 63.5659 131.15 71.188 140.416L85.5581 157.887L123.563 204.081Z" fill="url(#paint7_linear_9_3004)"/>
<path d="M206.198 155.27V190.18C206.198 197.859 199.97 204.081 192.291 204.081H47.5518L85.5576 157.887L132.247 101.13C139.864 91.8696 154.046 91.8696 161.663 101.13L206.198 155.27Z" fill="url(#paint8_linear_9_3004)"/>
<path d="M67.2674 97.1264C78.1558 97.1264 86.9826 88.2996 86.9826 77.4112C86.9826 66.5228 78.1558 57.696 67.2674 57.696C56.379 57.696 47.5522 66.5228 47.5522 77.4112C47.5522 88.2996 56.379 97.1264 67.2674 97.1264Z" fill="url(#paint9_linear_9_3004)"/>
</g>
</g>
<defs>
<linearGradient id="paint0_linear_9_3004" x1="63.879" y1="48.6137" x2="204.872" y2="224.695" gradientUnits="userSpaceOnUse">
<stop stop-color="#FFA936"/>
<stop offset="0.4112" stop-color="#FF8548"/>
<stop offset="0.7781" stop-color="#FF6C54"/>
<stop offset="1" stop-color="#FF6359"/>
</linearGradient>
<linearGradient id="paint1_linear_9_3004" x1="240.435" y1="77.9485" x2="228.642" y2="80.55" gradientUnits="userSpaceOnUse">
<stop stop-color="#F82814" stop-opacity="0"/>
<stop offset="1" stop-color="#C0272D"/>
</linearGradient>
<linearGradient id="paint2_linear_9_3004" x1="44.2328" y1="69.8151" x2="230.522" y2="197.091" gradientUnits="userSpaceOnUse">
<stop stop-color="#CDEC7A"/>
<stop offset="0.2157" stop-color="#B0E995"/>
<stop offset="0.5613" stop-color="#87E4BB"/>
<stop offset="0.8347" stop-color="#6EE1D2"/>
<stop offset="1" stop-color="#65E0DB"/>
</linearGradient>
<linearGradient id="paint3_linear_9_3004" x1="241.021" y1="125.758" x2="220.901" y2="125.758" gradientUnits="userSpaceOnUse">
<stop stop-color="#CDEC7A" stop-opacity="0"/>
<stop offset="0.2354" stop-color="#9AD57D" stop-opacity="0.235"/>
<stop offset="0.6035" stop-color="#51B482" stop-opacity="0.604"/>
<stop offset="0.8679" stop-color="#239F85" stop-opacity="0.868"/>
<stop offset="1" stop-color="#119786"/>
</linearGradient>
<linearGradient id="paint4_linear_9_3004" x1="86.6327" y1="228.881" x2="86.6327" y2="216.961" gradientUnits="userSpaceOnUse">
<stop stop-color="#CDEC7A" stop-opacity="0"/>
<stop offset="0.2354" stop-color="#9AD57D" stop-opacity="0.235"/>
<stop offset="0.6035" stop-color="#51B482" stop-opacity="0.604"/>
<stop offset="0.8679" stop-color="#239F85" stop-opacity="0.868"/>
<stop offset="1" stop-color="#119786"/>
</linearGradient>
<linearGradient id="paint5_linear_9_3004" x1="43.2669" y1="54.7808" x2="202.761" y2="214.275" gradientUnits="userSpaceOnUse">
<stop stop-color="#F8F6FB"/>
<stop offset="1" stop-color="#EFDCFB"/>
</linearGradient>
<linearGradient id="paint6_linear_9_3004" x1="55.2786" y1="49.5858" x2="210.839" y2="251.971" gradientUnits="userSpaceOnUse">
<stop stop-color="#18CEFB"/>
<stop offset="0.2969" stop-color="#2BB9F9"/>
<stop offset="0.7345" stop-color="#42A0F7"/>
<stop offset="1" stop-color="#4A97F6"/>
</linearGradient>
<linearGradient id="paint7_linear_9_3004" x1="37.0532" y1="155.162" x2="105.204" y2="243.826" gradientUnits="userSpaceOnUse">
<stop stop-color="#CDEC7A"/>
<stop offset="0.2154" stop-color="#B0E995" stop-opacity="0.784"/>
<stop offset="0.5604" stop-color="#87E4BB" stop-opacity="0.439"/>
<stop offset="0.8334" stop-color="#6EE1D2" stop-opacity="0.165"/>
<stop offset="0.9985" stop-color="#65E0DB" stop-opacity="0"/>
</linearGradient>
<linearGradient id="paint8_linear_9_3004" x1="97.4621" y1="141.409" x2="179.657" y2="248.344" gradientUnits="userSpaceOnUse">
<stop stop-color="#CDEC7A"/>
<stop offset="0.2157" stop-color="#B0E995"/>
<stop offset="0.5613" stop-color="#87E4BB"/>
<stop offset="0.8347" stop-color="#6EE1D2"/>
<stop offset="1" stop-color="#65E0DB"/>
</linearGradient>
<linearGradient id="paint9_linear_9_3004" x1="57.4719" y1="64.6676" x2="84.1268" y2="99.346" gradientUnits="userSpaceOnUse">
<stop stop-color="#FFD945"/>
<stop offset="0.3043" stop-color="#FFCD3E"/>
<stop offset="0.8558" stop-color="#FFAD2B"/>
<stop offset="1" stop-color="#FFA325"/>
</linearGradient>
<clipPath id="clip0_9_3004">
<rect width="250" height="250" fill="white"/>
</clipPath>
<clipPath id="clip1_9_3004">
<rect width="250" height="250" fill="white"/>
</clipPath>
</defs>
</svg>
